
<svg version="1.0" xmlns="http://www.w3.org/2000/svg"
 width="512.000000pt" height="512.000000pt" viewBox="0 0 512.000000 512.000000"
 preserveAspectRatio="xMidYMid meet">

<g transform="translate(0.000000,512.000000) scale(0.100000,-0.100000)">
<path d="M853 5105 c-87 -19 -157 -59 -228 -130 -72 -72 -111 -141 -130 -232
-22 -103 -22 -4134 0 -4237 39 -183 170 -352 336 -434 156 -77 23 -72 1968
-70 1739 3 1740 3 1767 24 15 11 37 33 48 48 l21 27 0 2139 0 2139 -21 27
c-11 15 -33 37 -48 48 -26 20 -43 21 -296 24 l-269 3 -3 269 c-3 253 -4 270
-24 296 -11 15 -33 37 -48 48 -27 21 -30 21 -1519 23 -1227 1 -1503 -1 -1554
-12z m2827 -465 l0 -160 -1375 0 c-1504 0 -1415 -4 -1468 59 -66 79 -36 206
58 247 24 11 285 13 1408 14 l1377 0 0 -160z m-1646 -820 c191 -60 328 -263
358 -535 25 -224 -41 -445 -175 -583 -29 -30 -71 -65 -94 -79 l-42 -25 -3
-448 c-3 -435 -4 -449 -24 -476 -39 -53 -71 -69 -134 -69 -63 0 -95 16 -134
69 -20 27 -21 41 -24 476 l-3 448 -42 25 c-95 57 -190 185 -236 319 -74 216
-39 502 83 686 117 174 293 246 470 192z m988 6 c302 -59 534 -268 625 -561
l28 -90 0 -417 c0 -405 -1 -417 -21 -444 -11 -15 -33 -37 -48 -48 -26 -20 -43
-21 -296 -24 l-269 -3 -3 -269 c-3 -253 -4 -270 -24 -296 -39 -53 -71 -69
-134 -69 -63 0 -95 16 -134 69 -21 27 -21 35 -24 1019 -1 546 0 1006 3 1024 7
40 49 91 90 109 40 17 116 17 207 0z m584 -2572 c53 -39 69 -71 69 -134 0 -63
-16 -95 -69 -134 -27 -21 -35 -21 -1024 -24 -681 -2 -1009 0 -1034 8 -101 29
-140 168 -71 251 52 61 -4 59 1095 56 999 -2 1007 -2 1034 -23z"/>
</g>
</svg>
