<svg version="1.0" xmlns="http://www.w3.org/2000/svg"
 width="512.000000pt" height="512.000000pt" viewBox="0 0 512.000000 512.000000"
 preserveAspectRatio="xMidYMid meet">

<g  transform="translate(0.000000,512.000000) scale(0.100000,-0.100000)">
<path d="M552 5099 c-251 -37 -458 -226 -523 -477 -18 -73 -19 -130 -19 -2066
0 -2206 -4 -2060 67 -2205 52 -106 178 -232 284 -284 145 -71 -1 -67 2205 -67
1949 0 1992 0 2068 20 156 40 285 131 374 265 58 85 88 167 102 280 7 54 10
713 8 2045 -3 1863 -4 1968 -22 2025 -64 213 -238 387 -451 451 -57 18 -161
19 -2045 20 -1154 1 -2011 -2 -2048 -7z m226 -1382 l22 -20 0 -543 c0 -298 3
-549 6 -558 5 -14 52 -16 424 -16 279 0 428 -4 449 -11 35 -12 51 -35 51 -74
0 -39 -16 -62 -51 -74 -43 -15 -909 -15 -962 0 -26 7 -44 21 -57 42 -19 31
-20 55 -20 628 0 583 0 597 20 622 32 40 75 42 118 4z m3692 -7 c6 -12 10
-248 10 -624 l0 -606 -29 -32 -29 -33 -492 0 -492 0 -24 28 c-30 36 -30 68 0
104 l24 28 439 5 438 5 5 555 c3 305 9 561 14 568 4 8 22 20 39 27 36 15 82 3
97 -25z m-757 -424 c89 -32 156 -102 182 -190 l14 -46 -1346 0 -1345 0 7 28
c21 89 98 177 178 206 60 21 2251 23 2310 2z m-1063 -966 l0 -651 -87 3 -88 3
-3 648 -2 647 90 0 90 0 0 -650z m-1720 18 c0 -2 -34 -216 -74 -477 -51 -322
-80 -479 -90 -489 -17 -18 -61 -9 -70 13 -5 13 121 856 139 933 5 19 12 22 50
22 25 0 45 -1 45 -2z m610 -6 c0 -4 31 -208 70 -452 38 -245 70 -457 70 -471
0 -15 -7 -32 -15 -39 -19 -16 -62 -5 -69 18 -7 23 -146 912 -146 934 0 15 8
18 45 18 25 0 45 -4 45 -8z m2140 5 c0 -2 -33 -216 -74 -476 -51 -323 -79
-479 -90 -489 -17 -18 -61 -9 -70 13 -5 13 121 854 139 933 5 19 12 22 50 22
25 0 45 -1 45 -3z m610 -4 c0 -5 31 -208 70 -453 38 -245 70 -457 70 -471 0
-15 -7 -32 -15 -39 -19 -16 -62 -5 -69 18 -7 23 -146 913 -146 935 0 14 9 17
45 17 25 0 45 -3 45 -7z m-1353 -748 c65 -19 139 -85 169 -150 13 -27 24 -56
24 -62 0 -10 -120 -13 -565 -13 l-565 0 0 23 c0 34 55 122 96 153 77 59 107
63 465 64 260 0 335 -3 376 -15z"/>
</g>
</svg>
